<mxfile host="Electron" modified="2024-02-07T07:07:06.975Z" agent="Mozilla/5.0 (X11; Linux x86_64) AppleWebKit/537.36 (KHTML, like Gecko) draw.io/22.1.2 Chrome/114.0.5735.289 Electron/25.9.4 Safari/537.36" etag="0_XQmxV6W_hACRoNioNI" version="22.1.2" type="device">
  <diagram name="Page-1" id="I1sYC1yjRQjW9iagJ5l6">
    <mxGraphModel dx="501" dy="733" grid="1" gridSize="10" guides="1" tooltips="1" connect="1" arrows="1" fold="1" page="1" pageScale="1" pageWidth="1169" pageHeight="827" math="0" shadow="0">
      <root>
        <mxCell id="0" />
        <mxCell id="1" parent="0" />
        <mxCell id="pODfKXHOM-4ElOoVFhsB-5" value="Krankenhaus" style="swimlane;childLayout=stackLayout;horizontal=1;startSize=50;horizontalStack=0;rounded=1;fontSize=14;fontStyle=0;strokeWidth=2;resizeParent=0;resizeLast=1;shadow=0;dashed=0;align=center;arcSize=4;whiteSpace=wrap;html=1;" parent="1" vertex="1">
          <mxGeometry x="20" y="20" width="160" height="120" as="geometry" />
        </mxCell>
        <mxCell id="pODfKXHOM-4ElOoVFhsB-6" value="&lt;u&gt;&lt;b&gt;Krankenhaus ID&lt;/b&gt;&lt;/u&gt;" style="align=left;strokeColor=none;fillColor=none;spacingLeft=4;fontSize=12;verticalAlign=top;resizable=0;rotatable=0;part=1;html=1;" parent="pODfKXHOM-4ElOoVFhsB-5" vertex="1">
          <mxGeometry y="50" width="160" height="70" as="geometry" />
        </mxCell>
        <mxCell id="pODfKXHOM-4ElOoVFhsB-7" value="Krankenkasse" style="swimlane;childLayout=stackLayout;horizontal=1;startSize=50;horizontalStack=0;rounded=1;fontSize=14;fontStyle=0;strokeWidth=2;resizeParent=0;resizeLast=1;shadow=0;dashed=0;align=center;arcSize=4;whiteSpace=wrap;html=1;" parent="1" vertex="1">
          <mxGeometry x="20" y="200" width="160" height="120" as="geometry">
            <mxRectangle x="20" y="200" width="130" height="50" as="alternateBounds" />
          </mxGeometry>
        </mxCell>
        <mxCell id="pODfKXHOM-4ElOoVFhsB-8" value="&lt;u&gt;&lt;b&gt;Krankenkassen ID&lt;/b&gt;&lt;br&gt;&lt;i&gt;Krankenhaus ID&lt;/i&gt;&lt;br&gt;&lt;/u&gt;" style="align=left;strokeColor=none;fillColor=none;spacingLeft=4;fontSize=12;verticalAlign=top;resizable=0;rotatable=0;part=1;html=1;" parent="pODfKXHOM-4ElOoVFhsB-7" vertex="1">
          <mxGeometry y="50" width="160" height="70" as="geometry" />
        </mxCell>
        <mxCell id="pODfKXHOM-4ElOoVFhsB-9" value="Ansprechpartner" style="swimlane;childLayout=stackLayout;horizontal=1;startSize=50;horizontalStack=0;rounded=1;fontSize=14;fontStyle=0;strokeWidth=2;resizeParent=0;resizeLast=1;shadow=0;dashed=0;align=center;arcSize=4;whiteSpace=wrap;html=1;" parent="1" vertex="1">
          <mxGeometry x="20" y="372.5" width="160" height="135" as="geometry" />
        </mxCell>
        <mxCell id="pODfKXHOM-4ElOoVFhsB-10" value="&lt;u&gt;&lt;b&gt;Ansprechpartner ID&lt;/b&gt;&lt;br&gt;&lt;i&gt;Krankenkassen ID&lt;/i&gt;&lt;/u&gt;&lt;br&gt;Name&lt;br&gt;Telefonnummer&lt;br&gt;Mailadresse" style="align=left;strokeColor=none;fillColor=none;spacingLeft=4;fontSize=12;verticalAlign=top;resizable=0;rotatable=0;part=1;html=1;" parent="pODfKXHOM-4ElOoVFhsB-9" vertex="1">
          <mxGeometry y="50" width="160" height="85" as="geometry" />
        </mxCell>
        <mxCell id="pODfKXHOM-4ElOoVFhsB-11" value="" style="fontSize=12;html=1;endArrow=ERmandOne;startArrow=ERone;rounded=0;" parent="1" source="pODfKXHOM-4ElOoVFhsB-7" target="pODfKXHOM-4ElOoVFhsB-9" edge="1">
          <mxGeometry width="100" height="100" relative="1" as="geometry">
            <mxPoint x="140" y="300" as="sourcePoint" />
            <mxPoint x="240" y="200" as="targetPoint" />
          </mxGeometry>
        </mxCell>
        <mxCell id="pODfKXHOM-4ElOoVFhsB-12" value="" style="fontSize=12;html=1;endArrow=ERmany;startArrow=ERmany;rounded=0;" parent="1" source="pODfKXHOM-4ElOoVFhsB-5" target="pODfKXHOM-4ElOoVFhsB-7" edge="1">
          <mxGeometry width="100" height="100" relative="1" as="geometry">
            <mxPoint x="-80" y="280" as="sourcePoint" />
            <mxPoint x="20" y="180" as="targetPoint" />
          </mxGeometry>
        </mxCell>
        <mxCell id="pODfKXHOM-4ElOoVFhsB-13" value="Patient" style="swimlane;childLayout=stackLayout;horizontal=1;startSize=50;horizontalStack=0;rounded=1;fontSize=14;fontStyle=0;strokeWidth=2;resizeParent=0;resizeLast=1;shadow=0;dashed=0;align=center;arcSize=4;whiteSpace=wrap;html=1;" parent="1" vertex="1">
          <mxGeometry x="240" y="192.5" width="160" height="135" as="geometry" />
        </mxCell>
        <mxCell id="pODfKXHOM-4ElOoVFhsB-14" value="&lt;u&gt;&lt;b&gt;Patientennummer&lt;/b&gt;&lt;/u&gt;&lt;br&gt;&lt;u&gt;&lt;i&gt;Krankenkassen ID&lt;/i&gt;&lt;/u&gt;&lt;br&gt;Name&lt;br&gt;Adresse&lt;br&gt;Aufenthaltszeitraum" style="align=left;strokeColor=none;fillColor=none;spacingLeft=4;fontSize=12;verticalAlign=top;resizable=1;rotatable=1;part=1;html=1;movable=1;deletable=1;editable=1;locked=0;connectable=1;" parent="pODfKXHOM-4ElOoVFhsB-13" vertex="1">
          <mxGeometry y="50" width="160" height="85" as="geometry" />
        </mxCell>
        <mxCell id="pODfKXHOM-4ElOoVFhsB-15" value="" style="fontSize=12;html=1;endArrow=ERzeroToMany;startArrow=ERmandOne;rounded=0;" parent="1" source="pODfKXHOM-4ElOoVFhsB-7" target="pODfKXHOM-4ElOoVFhsB-13" edge="1">
          <mxGeometry width="100" height="100" relative="1" as="geometry">
            <mxPoint x="50" y="340" as="sourcePoint" />
            <mxPoint x="150" y="240" as="targetPoint" />
          </mxGeometry>
        </mxCell>
        <mxCell id="pODfKXHOM-4ElOoVFhsB-16" value="Zimmer" style="swimlane;childLayout=stackLayout;horizontal=1;startSize=50;horizontalStack=0;rounded=1;fontSize=14;fontStyle=0;strokeWidth=2;resizeParent=0;resizeLast=1;shadow=0;dashed=0;align=center;arcSize=4;whiteSpace=wrap;html=1;" parent="1" vertex="1">
          <mxGeometry x="460" y="200" width="160" height="120" as="geometry" />
        </mxCell>
        <mxCell id="pODfKXHOM-4ElOoVFhsB-17" value="&lt;u&gt;&lt;b&gt;Raumnummer&lt;br&gt;&lt;/b&gt;&lt;/u&gt;&lt;i&gt;&lt;u&gt;Stations ID&lt;/u&gt;&lt;/i&gt;&lt;br&gt;Bettanzahl&lt;br&gt;Ausstattung" style="align=left;strokeColor=none;fillColor=none;spacingLeft=4;fontSize=12;verticalAlign=top;resizable=0;rotatable=0;part=1;html=1;" parent="pODfKXHOM-4ElOoVFhsB-16" vertex="1">
          <mxGeometry y="50" width="160" height="70" as="geometry" />
        </mxCell>
        <mxCell id="pODfKXHOM-4ElOoVFhsB-18" value="" style="fontSize=12;html=1;endArrow=ERzeroToOne;startArrow=ERmandOne;rounded=0;" parent="1" source="pODfKXHOM-4ElOoVFhsB-16" target="pODfKXHOM-4ElOoVFhsB-13" edge="1">
          <mxGeometry width="100" height="100" relative="1" as="geometry">
            <mxPoint x="410" y="630" as="sourcePoint" />
            <mxPoint x="510" y="530" as="targetPoint" />
            <Array as="points" />
          </mxGeometry>
        </mxCell>
        <mxCell id="pODfKXHOM-4ElOoVFhsB-19" value="Krankheit" style="swimlane;childLayout=stackLayout;horizontal=1;startSize=50;horizontalStack=0;rounded=1;fontSize=14;fontStyle=0;strokeWidth=2;resizeParent=0;resizeLast=1;shadow=0;dashed=0;align=center;arcSize=4;whiteSpace=wrap;html=1;" parent="1" vertex="1">
          <mxGeometry x="240" y="380" width="160" height="120" as="geometry" />
        </mxCell>
        <mxCell id="pODfKXHOM-4ElOoVFhsB-20" value="&lt;u&gt;&lt;b&gt;Krankheitsbezeichnung&lt;/b&gt;&lt;/u&gt;&lt;br&gt;Erste Diagnostizierung&lt;br&gt;Behandlungsstatus&lt;br&gt;BehandlungsmÃ¶glichkeit" style="align=left;strokeColor=none;fillColor=none;spacingLeft=4;fontSize=12;verticalAlign=top;resizable=0;rotatable=0;part=1;html=1;" parent="pODfKXHOM-4ElOoVFhsB-19" vertex="1">
          <mxGeometry y="50" width="160" height="70" as="geometry" />
        </mxCell>
        <mxCell id="pODfKXHOM-4ElOoVFhsB-21" value="" style="fontSize=12;html=1;endArrow=ERzeroToMany;endFill=1;startArrow=ERzeroToMany;rounded=0;" parent="1" source="pODfKXHOM-4ElOoVFhsB-19" target="pODfKXHOM-4ElOoVFhsB-13" edge="1">
          <mxGeometry width="100" height="100" relative="1" as="geometry">
            <mxPoint x="220" y="670" as="sourcePoint" />
            <mxPoint x="320" y="570" as="targetPoint" />
          </mxGeometry>
        </mxCell>
        <mxCell id="pODfKXHOM-4ElOoVFhsB-22" value="Station" style="swimlane;childLayout=stackLayout;horizontal=1;startSize=50;horizontalStack=0;rounded=1;fontSize=14;fontStyle=0;strokeWidth=2;resizeParent=0;resizeLast=1;shadow=0;dashed=0;align=center;arcSize=4;whiteSpace=wrap;html=1;" parent="1" vertex="1">
          <mxGeometry x="240" y="20" width="160" height="120" as="geometry" />
        </mxCell>
        <mxCell id="pODfKXHOM-4ElOoVFhsB-23" value="&lt;b&gt;&lt;u&gt;Stations ID&lt;br&gt;&lt;/u&gt;&lt;/b&gt;&lt;u&gt;&lt;i&gt;Krankenhaus ID&lt;/i&gt;&lt;/u&gt;&lt;br&gt;Stockwerk" style="align=left;strokeColor=none;fillColor=none;spacingLeft=4;fontSize=12;verticalAlign=top;resizable=0;rotatable=0;part=1;html=1;" parent="pODfKXHOM-4ElOoVFhsB-22" vertex="1">
          <mxGeometry y="50" width="160" height="70" as="geometry" />
        </mxCell>
        <mxCell id="pODfKXHOM-4ElOoVFhsB-24" value="" style="fontSize=12;html=1;startArrow=ERmandOne;endArrow=ERoneToMany;rounded=0;" parent="1" source="pODfKXHOM-4ElOoVFhsB-5" target="pODfKXHOM-4ElOoVFhsB-22" edge="1">
          <mxGeometry width="100" height="100" relative="1" as="geometry">
            <mxPoint x="120" y="640" as="sourcePoint" />
            <mxPoint x="220" y="540" as="targetPoint" />
          </mxGeometry>
        </mxCell>
        <mxCell id="pODfKXHOM-4ElOoVFhsB-25" value="Chefarzt" style="swimlane;childLayout=stackLayout;horizontal=1;startSize=50;horizontalStack=0;rounded=1;fontSize=14;fontStyle=0;strokeWidth=2;resizeParent=0;resizeLast=1;shadow=0;dashed=0;align=center;arcSize=4;whiteSpace=wrap;html=1;" parent="1" vertex="1">
          <mxGeometry x="460" y="20" width="160" height="120" as="geometry" />
        </mxCell>
        <mxCell id="pODfKXHOM-4ElOoVFhsB-26" value="&lt;u&gt;&lt;b&gt;Chefarzt ID&lt;/b&gt;&lt;/u&gt;&lt;br&gt;&lt;i style=&quot;text-decoration-line: underline;&quot;&gt;Stations ID&lt;br&gt;&lt;/i&gt;Name" style="align=left;strokeColor=none;fillColor=none;spacingLeft=4;fontSize=12;verticalAlign=top;resizable=0;rotatable=0;part=1;html=1;" parent="pODfKXHOM-4ElOoVFhsB-25" vertex="1">
          <mxGeometry y="50" width="160" height="70" as="geometry" />
        </mxCell>
        <mxCell id="pODfKXHOM-4ElOoVFhsB-27" value="" style="fontSize=12;html=1;endArrow=ERmandOne;startArrow=ERmandOne;rounded=0;" parent="1" source="pODfKXHOM-4ElOoVFhsB-25" target="pODfKXHOM-4ElOoVFhsB-22" edge="1">
          <mxGeometry width="100" height="100" relative="1" as="geometry">
            <mxPoint x="280" y="430" as="sourcePoint" />
            <mxPoint x="380" y="330" as="targetPoint" />
          </mxGeometry>
        </mxCell>
        <mxCell id="pODfKXHOM-4ElOoVFhsB-28" value="" style="fontSize=12;html=1;endArrow=ERoneToMany;startArrow=ERmandOne;rounded=0;" parent="1" source="pODfKXHOM-4ElOoVFhsB-22" target="pODfKXHOM-4ElOoVFhsB-16" edge="1">
          <mxGeometry width="100" height="100" relative="1" as="geometry">
            <mxPoint x="450" y="390" as="sourcePoint" />
            <mxPoint x="550" y="290" as="targetPoint" />
          </mxGeometry>
        </mxCell>
        <mxCell id="pODfKXHOM-4ElOoVFhsB-32" value="Aufenthalt" style="swimlane;childLayout=stackLayout;horizontal=1;startSize=50;horizontalStack=0;rounded=1;fontSize=14;fontStyle=0;strokeWidth=2;resizeParent=0;resizeLast=1;shadow=0;dashed=0;align=center;arcSize=4;whiteSpace=wrap;html=1;" parent="1" vertex="1">
          <mxGeometry x="460" y="380" width="160" height="120" as="geometry" />
        </mxCell>
        <mxCell id="pODfKXHOM-4ElOoVFhsB-33" value="&lt;u&gt;&lt;i&gt;Patientennummer&lt;br&gt;Raumnummer&lt;br&gt;Krankheitsbezeichnung&lt;br&gt;&lt;/i&gt;&lt;/u&gt;" style="align=left;strokeColor=none;fillColor=none;spacingLeft=4;fontSize=12;verticalAlign=top;resizable=0;rotatable=0;part=1;html=1;" parent="pODfKXHOM-4ElOoVFhsB-32" vertex="1">
          <mxGeometry y="50" width="160" height="70" as="geometry" />
        </mxCell>
        <mxCell id="pODfKXHOM-4ElOoVFhsB-34" value="" style="fontSize=12;html=1;startArrow=ERmandOne;endArrow=ERzeroToMany;endFill=1;rounded=0;" parent="1" source="pODfKXHOM-4ElOoVFhsB-13" target="pODfKXHOM-4ElOoVFhsB-32" edge="1">
          <mxGeometry width="100" height="100" relative="1" as="geometry">
            <mxPoint x="480" y="630" as="sourcePoint" />
            <mxPoint x="580" y="530" as="targetPoint" />
          </mxGeometry>
        </mxCell>
        <mxCell id="pODfKXHOM-4ElOoVFhsB-35" value="" style="fontSize=12;html=1;endArrow=ERzeroToOne;startArrow=ERmandOne;rounded=0;" parent="1" source="pODfKXHOM-4ElOoVFhsB-16" target="pODfKXHOM-4ElOoVFhsB-32" edge="1">
          <mxGeometry width="100" height="100" relative="1" as="geometry">
            <mxPoint x="470" y="270" as="sourcePoint" />
            <mxPoint x="410" y="270" as="targetPoint" />
            <Array as="points" />
          </mxGeometry>
        </mxCell>
        <mxCell id="pODfKXHOM-4ElOoVFhsB-36" value="" style="fontSize=12;html=1;endArrow=ERoneToMany;startArrow=ERmandOne;rounded=0;" parent="1" source="pODfKXHOM-4ElOoVFhsB-32" target="pODfKXHOM-4ElOoVFhsB-19" edge="1">
          <mxGeometry width="100" height="100" relative="1" as="geometry">
            <mxPoint x="360" y="620" as="sourcePoint" />
            <mxPoint x="460" y="520" as="targetPoint" />
          </mxGeometry>
        </mxCell>
      </root>
    </mxGraphModel>
  </diagram>
</mxfile>
